<svg id="Capa_1" enable-background="new 0 0 512 512" height="512" viewBox="0 0 512 512" width="512" xmlns="http://www.w3.org/2000/svg"><g id="XMLID_1009_"><g id="XMLID_3275_"><g id="XMLID_3186_"><path id="XMLID_3192_" d="m161.818 143.397h102.447v311.025h-102.447z" fill="#ffcb7c" transform="matrix(.707 .707 -.707 .707 273.76 -63.094)"/><path id="XMLID_3189_" d="m10 501.951 56.857-129.298 72.441 72.442z" fill="#e1e3e9"/><path id="XMLID_1175_" d="m10 501.951 77.552-34.102-43.449-43.45z" fill="#98a1b3"/></g><circle id="XMLID_3139_" cx="408.866" cy="103.085" fill="#ffcb7c" r="93.134"/><path id="XMLID_3248_" d="m390.005 215.935-93.988-93.988c-10.911-10.911-28.602-10.911-39.513 0-10.911 10.911-10.911 28.602 0 39.513l93.988 93.988c10.911 10.911 28.602 10.911 39.513 0 10.911-10.911 10.911-28.602 0-39.513z" fill="#91def5"/></g><g id="XMLID_125_"><path id="XMLID_144_" d="m378 335.951c-5.522 0-10 4.478-10 10v14.615c0 5.522 4.478 10 10 10s10-4.478 10-10v-14.615c0-5.522-4.477-10-10-10z"/><path id="XMLID_164_" d="m378 397.336c-5.522 0-10 4.478-10 10v14.615c0 5.522 4.478 10 10 10s10-4.478 10-10v-14.615c0-5.523-4.477-10-10-10z"/><path id="XMLID_174_" d="m416 373.951h-14.615c-5.522 0-10 4.478-10 10s4.478 10 10 10h14.615c5.522 0 10-4.478 10-10s-4.477-10-10-10z"/><path id="XMLID_177_" d="m354.615 373.951h-14.615c-5.522 0-10 4.478-10 10s4.478 10 10 10h14.615c5.522 0 10-4.478 10-10s-4.477-10-10-10z"/><path id="XMLID_178_" d="m151.385 143.951h14.615c5.522 0 10-4.478 10-10s-4.478-10-10-10h-14.615c-5.522 0-10 4.478-10 10s4.477 10 10 10z"/><path id="XMLID_179_" d="m90 143.951h14.615c5.522 0 10-4.478 10-10s-4.478-10-10-10h-14.615c-5.522 0-10 4.478-10 10s4.478 10 10 10z"/><path id="XMLID_180_" d="m128 120.566c5.522 0 10-4.478 10-10v-14.615c0-5.522-4.478-10-10-10s-10 4.478-10 10v14.615c0 5.523 4.478 10 10 10z"/><path id="XMLID_181_" d="m128 181.951c5.522 0 10-4.478 10-10v-14.615c0-5.522-4.478-10-10-10s-10 4.478-10 10v14.615c0 5.523 4.478 10 10 10z"/><path id="XMLID_182_" d="m445.572 66.379c-9.805-9.805-22.841-15.204-36.706-15.204-13.866 0-26.901 5.399-36.706 15.204s-15.204 22.841-15.204 36.706c0 13.866 5.399 26.901 15.204 36.705 8.078 8.08 17.982 12.677 28.644 13.294.819.047 1.646.071 2.478.071 1.281 0 2.571-.057 3.855-.169 5.502-.48 9.572-5.33 9.092-10.832-.481-5.503-5.341-9.582-10.832-9.092-1.16.101-2.318.12-3.438.055-5.767-.334-11.034-2.847-15.655-7.469-6.027-6.026-9.347-14.04-9.347-22.563s3.319-16.536 9.347-22.563c6.026-6.027 14.04-9.347 22.563-9.347s16.536 3.319 22.563 9.347c4.522 4.522 7.553 10.214 8.762 16.459 1.049 5.422 6.293 8.976 11.718 7.917 5.423-1.05 8.967-6.296 7.917-11.718-1.97-10.178-6.9-19.446-14.255-26.801z"/><path id="XMLID_185_" d="m481.793 30.158c-40.213-40.211-105.641-40.211-145.854 0-24.098 24.097-33.748 57.25-28.963 88.606l-3.889-3.889c-7.166-7.166-16.693-11.112-26.828-11.112-10.134.001-19.661 3.947-26.827 11.113-14.792 14.793-14.792 38.862 0 53.655l3.702 3.702-193.349 193.349c-.877.878-1.583 1.91-2.083 3.046l-56.856 129.298c-1.659 3.774-.832 8.181 2.083 11.097 1.916 1.915 4.474 2.929 7.073 2.929 1.358 0 2.729-.276 4.023-.846l129.298-56.856c1.136-.5 2.168-1.206 3.046-2.083l67.272-67.272c3.905-3.905 3.905-10.237 0-14.143-3.906-3.904-10.236-3.904-14.143 0l-60.201 60.201-22.078-22.078 186.277-186.277 22.078 22.078-62.477 62.477c-3.905 3.905-3.905 10.237 0 14.143 1.953 1.952 4.512 2.929 7.071 2.929s5.118-.977 7.071-2.929l62.477-62.477 3.702 3.702c7.397 7.396 17.11 11.094 26.828 11.094 9.714 0 19.432-3.698 26.828-11.094 14.792-14.793 14.792-38.862 0-53.655 0-.001 0-.001 0-.001l-3.889-3.889c5.193.792 10.436 1.195 15.679 1.195 26.41 0 52.82-10.053 72.927-30.158 40.214-40.213 40.214-105.643.002-145.855zm-411.668 359.906 51.763 51.763-32.439 14.264-33.589-33.588zm-22.904 52.085 22.581 22.581-40.304 17.723zm55.856-47.418-22.078-22.078 186.277-186.277 22.078 22.078zm279.857-171.726c3.389 3.39 5.255 7.895 5.255 12.687s-1.867 9.297-5.256 12.686c-6.994 6.994-18.376 6.996-25.37 0l-93.988-93.988c-6.995-6.994-6.995-18.376 0-25.371 3.497-3.497 8.091-5.246 12.686-5.246 4.594 0 9.188 1.749 12.686 5.246zm84.717-61.136c-32.414 32.414-85.154 32.414-117.568 0s-32.414-85.154 0-117.568c16.207-16.207 37.495-24.311 58.784-24.311s42.577 8.104 58.784 24.311c32.414 32.414 32.414 85.154 0 117.568z"/><path id="XMLID_1411_" d="m238.26 336.131c-2.64 0-5.21 1.07-7.07 2.93-1.859 1.86-2.93 4.44-2.93 7.07s1.07 5.21 2.93 7.07c1.86 1.859 4.44 2.93 7.07 2.93s5.21-1.07 7.07-2.93c1.859-1.86 2.93-4.44 2.93-7.07s-1.07-5.21-2.93-7.07-4.43-2.93-7.07-2.93z"/></g></g></svg>