<svg id="Capa_1" enable-background="new 0 0 512.021 512.021" height="512" viewBox="0 0 512.021 512.021" width="512" xmlns="http://www.w3.org/2000/svg"><g><g><path d="m200.488 221.007 36.266 237.115c2.49 16.283 24.063 20.396 32.37 6.171l232.971-398.94c6.804-11.651-1.6-26.291-15.092-26.292l-461.984-.015c-16.473 0-23.8 20.702-10.995 31.064z" fill="#ff7e92"/><path d="m502.159 47.837-279.303 160.33-206.267-167.015c-10.111 5.518-12.897 20.597-2.566 28.958l186.465 150.896 36.266 237.115c2.49 16.283 24.063 20.396 32.37 6.171l232.971-398.94c3.401-5.825 3.002-12.398.064-17.515z" fill="#ff5f7a"/><path d="m236.754 458.121c2.016 13.179 16.447 18.184 26.313 12.149l-40.21-262.105-22.369 12.84z" fill="#fb4455"/></g><path d="m508.664 44.103c-4.508-7.854-12.606-12.542-21.662-12.542l-461.983-.015c-10.725 0-19.968 6.533-23.546 16.644-3.579 10.111-.504 21.003 7.833 27.75l184.208 149.07 35.828 234.245c1.621 10.602 9.477 18.75 20.012 20.759 1.621.31 3.234.46 4.827.46 8.762-.001 16.844-4.562 21.421-12.399l232.97-398.94c4.565-7.82 4.6-17.178.092-25.032zm-246.017 416.408c-3.3 5.651-8.86 5.079-10.485 4.77s-7.004-1.823-7.994-8.292l-35.49-232.035 24.215-13.9c3.592-2.062 4.833-6.646 2.771-10.238s-6.645-4.832-10.238-2.771l-24.215 13.9-182.469-147.665c-5.087-4.116-3.681-9.525-3.129-11.085s2.862-6.649 9.407-6.649l461.983.015c.669 0 1.318.084 1.953.208l-235.345 135.096c-3.592 2.062-4.833 6.646-2.771 10.239 1.386 2.415 3.913 3.767 6.511 3.767 1.267 0 2.55-.321 3.727-.997l235.344-135.095c-.214.611-.468 1.214-.805 1.791z"/></g></svg>